<svg width="24" height="25" viewBox="0 0 24 25" fill="none" xmlns="http://www.w3.org/2000/svg">
<path fill-rule="evenodd" clip-rule="evenodd" d="M10.1654 1.09255L1.69485 5.76611C0.642388 6.3468 0 7.3831 0 8.50025V17.126C0 18.2431 0.642388 19.2794 1.69485 19.8601L10.1654 24.5337C11.2924 25.1554 12.7076 25.1554 13.8346 24.5337L22.3051 19.8601C23.3576 19.2794 24 18.2431 24 17.126V8.50025C24 7.3831 23.3576 6.3468 22.3051 5.76611L13.8346 1.09255C12.7076 0.470777 11.2924 0.470777 10.1654 1.09255ZM1.41179 8.50022C1.41179 7.82994 1.79722 7.20815 2.4287 6.85974L10.8993 2.18618C11.5755 1.81312 12.4246 1.81312 13.1008 2.18618L21.5714 6.85974C22.2028 7.20815 22.5883 7.82994 22.5883 8.50022V17.1259C22.5883 17.7962 22.2028 18.418 21.5714 18.7664L13.1008 23.44C12.4246 23.8131 11.5755 23.8131 10.8993 23.44L2.4287 18.7664C1.79722 18.418 1.41179 17.7962 1.41179 17.1259V8.50022Z" fill="#3E7BFA"/>
<path d="M11.2941 13.051L6.05428 10.8327C5.70104 10.6831 5.54837 10.3022 5.71329 9.98189C5.87822 9.66156 6.29827 9.52313 6.65152 9.67268L11.9988 11.9365L17.3485 9.67263C17.7018 9.52314 18.1218 9.66164 18.2867 9.98199C18.4515 10.3023 18.2988 10.6832 17.9455 10.8327L12.7058 13.05V17.9338C12.7058 18.2873 12.3898 18.5739 12 18.5739C11.6101 18.5739 11.2941 18.2873 11.2941 17.9338V13.051Z" fill="#C7C9D9"/>
</svg>
