<svg width="46" height="53" viewBox="0 0 46 53" fill="none" xmlns="http://www.w3.org/2000/svg">
<path fill-rule="evenodd" clip-rule="evenodd" d="M19.4838 1.61628L3.24846 11.5387C1.23124 12.7715 0 14.9717 0 17.3435V35.6566C0 38.0284 1.23124 40.2286 3.24846 41.4614L19.4838 51.3838C21.6437 52.7039 24.3563 52.7039 26.5162 51.3838L42.7515 41.4614C44.7688 40.2286 46 38.0284 46 35.6566V17.3435C46 14.9717 44.7688 12.7715 42.7515 11.5387L26.5162 1.61628C24.3563 0.2962 21.6437 0.2962 19.4838 1.61628ZM2.70588 17.3435C2.70588 15.9204 3.44463 14.6003 4.65496 13.8606L20.8903 3.93821C22.1862 3.14616 23.8138 3.14616 25.1097 3.93821L41.345 13.8606C42.5554 14.6003 43.2941 15.9204 43.2941 17.3435V35.6566C43.2941 37.0797 42.5554 38.3998 41.345 39.1395L25.1097 49.0619C23.8138 49.854 22.1862 49.854 20.8903 49.0619L4.65496 39.1395C3.44463 38.3998 2.70588 37.0797 2.70588 35.6566V17.3435Z" fill="#3E7BFA"/>
<path d="M21.6471 27.0052L11.6042 22.2955C10.9271 21.978 10.6345 21.1693 10.9506 20.4892C11.2667 19.8092 12.0718 19.5152 12.7489 19.8328L22.9977 24.639L33.2514 19.8327C33.9285 19.5153 34.7336 19.8093 35.0496 20.4894C35.3656 21.1696 35.0728 21.9782 34.3957 22.2956L24.353 27.0031V37.3718C24.353 38.1224 23.7472 38.7308 23 38.7308C22.2528 38.7308 21.6471 38.1224 21.6471 37.3718V27.0052Z" fill="#C7C9D9"/>
</svg>
